HIERARCHY
ROOT ui
{
	 OFFSET 0 0 0
	 CHANNELS 3 XPosition YPosition Z Position
	 EndSite
	 {
	 OFFSET 0 -1 0
	 }
}
ROOT li
{
	 OFFSET 0 0 0
	 CHANNELS 3 XPosition YPosition Z Position
	 EndSite
	 {
	 OFFSET 0 -1 0
	 }
}
ROOT ul
{
	 OFFSET 0 0 0
	 CHANNELS 3 XPosition YPosition Z Position
	 EndSite
	 {
	 OFFSET 0 -1 0
	 }
}
ROOT ll
{
	 OFFSET 0 0 0
	 CHANNELS 3 XPosition YPosition Z Position
	 EndSite
	 {
	 OFFSET 0 -1 0
	 }
}
ROOT tt
{
	 OFFSET 0 0 0
	 CHANNELS 3 XPosition YPosition Z Position
	 EndSite
	 {
	 OFFSET 0 -1 0
	 }
}
ROOT tb
{
	 OFFSET 0 0 0
	 CHANNELS 3 XPosition YPosition Z Position
	 EndSite
	 {
	 OFFSET 0 -1 0
	 }
}
ROOT td
{
	 OFFSET 0 0 0
	 CHANNELS 3 XPosition YPosition Z Position
	 EndSite
	 {
	 OFFSET 0 -1 0
	 }
}
ROOT v
{
	 OFFSET 0 0 0
	 CHANNELS 3 XPosition YPosition Z Position
	 EndSite
	 {
	 OFFSET 0 -1 0
	 }
}
ROOT bn
{
	 OFFSET 0 0 0
	 CHANNELS 3 XPosition YPosition Z Position
	 EndSite
	 {
	 OFFSET 0 -1 0
	 }
}
MOTION
Frames: 18
Frame Time: 0.002
0.0021011049747467043	0.0015986119508743287	0		0.4349417724609375	-2.35832958984375	0		-1.108339111328125	0.0512824592590332	0		-0.8669407958984375	-2.492130859375	0		1.4267750244140625	-0.71329736328125	0		3.234377685546875	-0.15014384460449218	0		4.74102099609375	-0.187064208984375	0		5.5769541015625	0.10491065979003907	0		-0.10200192260742187	5.97049658203125	0		
-0.07625605010986328	-3.28900009393692E-4	0		0.43749462890625	-2.360348876953125	0		-1.10871435546875	0.047365966796875	0		-0.7904661865234375	-2.500078125	0		1.4314212646484374	-0.7133837890625	0		3.26401806640625	-0.1526352233886719	0		4.74568896484375	-0.18728561401367189	0		5.5857392578125	0.11260146331787109	0		-0.07916460418701173	5.96423388671875	0		
-0.045647167205810545	-6.889430284500122E-4	0		0.44201266479492185	-2.36038330078125	0		-1.104101318359375	0.04739245986938476	0		-0.8229237670898437	-2.497572265625	0		1.4329512939453124	-0.7174172973632813	0		3.257531005859375	-0.15963436889648439	0		4.75029248046875	-0.18749015808105468	0		5.595248046875	0.1042979736328125	0		-0.07430474090576172	5.9652197265625	0		
-0.044214305877685545	-0.00465471887588501	0		0.44436895751953126	-2.363381103515625	0		-1.030726318359375	0.03850700759887695	0		-0.78358935546875	-2.50201513671875	0		1.4374100341796876	-0.717479736328125	0		3.257944580078125	-0.16471244812011718	0		4.754771484375	-0.18767884826660156	0		5.58073974609375	0.10433054351806641	0		-0.10268214416503907	5.95865576171875	0		
-0.03684926223754883	-6.933689713478088E-4	0		0.4315557250976563	-2.366169677734375	0		-1.1342962646484376	0.04798871612548828	0		-0.8413768920898438	-2.502156982421875	0		1.4447489013671875	-0.7135726928710937	0		3.26113037109375	-0.1738174591064453	0		4.73707861328125	-0.18755865478515624	0		5.589162109375	0.11207201385498047	0		-0.08299263763427735	5.9704580078125	0		
-0.02466941261291504	0.005207582950592041	0		0.4607445373535156	-2.353513671875	0		-1.0752799072265624	0.04129917907714844	0		-0.7933152465820312	-2.498710205078125	0		1.4207325439453125	-0.7202400512695313	0		3.2886513671875	-0.14223625183105468	0		4.76725	-0.18206736755371095	0		5.597373046875	0.11982810211181641	0		-0.07868203735351563	5.97046826171875	0		
-0.020809986114501952	0.005222274780273438	0		0.43248663330078124	-2.3560849609375	0		-1.0822838134765624	0.05149642944335937	0		-0.7655025024414063	-2.495992431640625	0		1.452658935546875	-0.7136513671875	0		3.255199951171875	-0.16483428955078125	0		4.762130859375	-0.18009416198730469	0		5.60712841796875	0.1115724334716797	0		-0.056689407348632814	5.9652431640625	0		
-0.02036150550842285	-0.00571685791015625	0		0.4619499816894531	-2.360430419921875	0		-1.0877928466796876	0.04367241668701172	0		-0.8030106201171875	-2.49739599609375	0		1.4562320556640624	-0.7136798095703125	0		3.27378955078125	-0.1651235809326172	0		4.77061328125	-0.1882969970703125	0		5.59662158203125	0.10359815216064452	0		-0.08697681427001953	5.95972265625	0		
-0.05202760696411133	-0.004221749782562256	0		0.4351827697753906	-2.361017578125	0		-1.08951416015625	0.04079605102539063	0		-0.76482861328125	-2.501821533203125	0		1.4564732666015625	-0.7176626586914062	0		3.2771015625	-0.16520414733886718	0		4.7739248046875	-0.18842437744140625	0		5.60994140625	0.10330986785888673	0		-0.08347306823730469	5.9597470703125	0		
0.03099386978149414	-0.005279716014862061	0		0.4681516418457031	-2.36041357421875	0		-1.116386474609375	0.04825768661499023	0		-0.8337733764648437	-2.493801025390625	0		1.420552001953125	-0.7121554565429687	0		3.270316162109375	-0.15114494323730468	0		4.78102880859375	-0.182598876953125	0		5.6111904296875	0.11919058990478516	0		-0.06411783599853516	5.9705556640625	0		
-0.03916848373413086	0.002733760118484497	0		0.44691732788085936	-2.3530771484375	0		-1.0695987548828125	0.05171707916259766	0		-0.7551563720703125	-2.497783203125	0		1.4682906494140624	-0.7107821044921875	0		3.270926025390625	-0.1601859588623047	0		4.7796787109375	-0.1886562957763672	0		5.61982080078125	0.11097390747070313	0		-0.061210720062255856	5.97058203125	0		
-0.009728707313537598	0.0023939430713653563	0		0.4731983947753906	-2.360388916015625	0		-1.0671551513671875	0.05177219390869141	0		-0.8287340698242187	-2.493703857421875	0		1.4256905517578125	-0.712183837890625	0		3.2844580078125	-0.15339862060546874	0		4.78211572265625	-0.18875967407226563	0		5.622265625	0.1108477783203125	0		-0.040689971923828124	5.96436572265625	0		
-0.041669837951660155	-0.004114284038543701	0		0.4752894592285156	-2.360373046875	0		-0.9971181640625	0.042901824951171875	0		-0.7527213134765625	-2.499662353515625	0		1.4698060302734375	-0.7137640991210937	0		3.29150927734375	-0.1605216064453125	0		4.77937109375	-0.180785888671875	0		5.62931005859375	0.10266552734375	0		-0.03837393569946289	5.96539453125	0		
-0.012804259300231933	-0.004451794147491455	0		0.4750611572265625	-2.363326904296875	0		-1.0722418212890625	0.044005661010742186	0		-0.8268641967773438	-2.495578125	0		1.46860302734375	-0.7177276611328125	0		3.2684033203125	-0.15822865295410157	0		4.78612548828125	-0.18893641662597657	0		5.62629052734375	0.11062985229492188	0		-0.036364830017089844	5.96542529296875	0		
-0.03820149993896484	-0.004049934864044189	0		0.4506803894042969	-2.35794970703125	0		-1.060655029296875	0.042925277709960935	0		-0.7394769287109375	-2.507701416015625	0		1.473241943359375	-0.7137686157226563	0		3.305778076171875	-0.17475807189941406	0		4.7877216796875	-0.1890087127685547	0		5.62789306640625	0.11053913116455077	0		-0.0506048583984375	5.96767724609375	0		
0.053279796600341794	0.004755396842956543	0		0.4649429931640625	-2.361099609375	0		-1.08918896484375	0.051393787384033204	0		-0.805004638671875	-2.494733642578125	0		1.485593017578125	-0.7129121704101562	0		3.304469970703125	-0.14974972534179687	0		4.77425	-0.17586524963378905	0		5.6233583984375	0.11854276275634766	0		-0.05011637115478516	5.968728515625	0		
0.0024125099182128905	0.005510454177856445	0		0.48306524658203126	-2.358298095703125	0		-0.9820701904296875	0.050005462646484374	0		-0.7449573974609375	-2.49748291015625	0		1.475694580078125	-0.7137461547851562	0		3.293376708984375	-0.16560325622558594	0		4.78530517578125	-0.18104930114746093	0		5.62626904296875	0.10245319366455079	0		-0.04984739685058594	5.97078662109375	0		
-0.004746797084808349	-3.278560042381287E-4	0		0.4539481201171875	-2.35784375	0		-1.1021768798828124	0.048734962463378904	0		-0.820031494140625	-2.493375732421875	0		1.47660400390625	-0.7137211303710937	0		3.28236572265625	-0.16044648742675782	0		4.78622412109375	-0.1810833740234375	0		5.61719384765625	0.10254132080078125	0		-0.030902610778808594	5.9645927734375	0		
